<svg xmlns="http://www.w3.org/2000/svg" version="1.1" xmlns:xlink="http://www.w3.org/1999/xlink" xmlns:svgjs="http://svgjs.dev/svgjs" width="1440" height="560" preserveAspectRatio="none" viewBox="0 0 1440 560"><g mask="url(&quot;#SvgjsMask1003&quot;)" fill="none"><rect width="1440" height="560" x="0" y="0" fill="rgba(24, 106, 59, 1)"></rect><path d="M0,443.634C82.679,434.988,151.951,388.981,226.982,353.191C313.909,311.726,432.233,303.213,475.138,216.988C517.94,130.969,450.189,32.3,433.759,-62.365C417.908,-153.696,432.191,-252.719,380.288,-329.522C325.8,-410.151,239.285,-470.455,144.147,-490.919C51.697,-510.804,-39.356,-469.402,-128.916,-439.049C-214.934,-409.896,-317.207,-393.909,-366.733,-317.776C-415.629,-242.61,-373.372,-143.991,-379.07,-54.502C-384.2,26.076,-418.896,103.877,-398.555,182.014C-376.106,268.249,-334.182,355.183,-259.688,404.082C-184.975,453.125,-88.886,452.929,0,443.634" fill="#13552f"></path><path d="M1440 994.845C1536.049 989.896 1636.597 1042.767 1722.6399999999999 999.797 1810.599 955.87 1867.423 862.1320000000001 1894.815 767.707 1920.463 679.294 1890.44 587.753 1868.078 498.452 1847.806 417.5 1813.565 344.972 1770.984 273.201 1719.6109999999999 186.611 1684.352 80.20600000000002 1593.811 36.166000000000054 1499.821-9.551000000000045 1380.292-8.745999999999981 1286.609 37.597999999999956 1196.577 82.13600000000002 1161.614 188.17700000000002 1111.067 274.978 1069.472 346.406 1027.682 417.231 1017.749 499.289 1007.963 580.136 1037.299 656.264 1055.298 735.687 1078.28 837.1 1051.759 971.8240000000001 1138 1029.921 1223.788 1087.713 1336.699 1000.168 1440 994.845" fill="#1d7f47"></path></g><defs><mask id="SvgjsMask1003"><rect width="1440" height="560" fill="#ffffff"></rect></mask></defs></svg>